<mxfile host="app.diagrams.net" modified="2022-09-27T15:12:02.361Z" agent="5.0 (Macintosh; Intel Mac OS X 10_15_7) AppleWebKit/537.36 (KHTML, like Gecko) Chrome/104.0.0.0 Safari/537.36" etag="_0QknFDP0S9TpbNQP4fJ" version="20.3.6" type="github">
  <diagram id="LmBNz4a5MVuXOIYVEkPk" name="第 1 页">
    <mxGraphModel dx="1426" dy="701" grid="1" gridSize="10" guides="1" tooltips="1" connect="1" arrows="1" fold="1" page="1" pageScale="1" pageWidth="827" pageHeight="3169" math="0" shadow="0">
      <root>
        <mxCell id="0" />
        <mxCell id="1" parent="0" />
        <mxCell id="jGAaExHpM7MZqOoKOTce-1" value="公猫" style="ellipse;whiteSpace=wrap;html=1;fontSize=18;" parent="1" vertex="1">
          <mxGeometry x="460" y="1010" width="120" height="80" as="geometry" />
        </mxCell>
        <mxCell id="jGAaExHpM7MZqOoKOTce-2" value="白色" style="ellipse;whiteSpace=wrap;html=1;fontSize=18;" parent="1" vertex="1">
          <mxGeometry x="500" y="1160" width="120" height="80" as="geometry" />
        </mxCell>
        <mxCell id="jGAaExHpM7MZqOoKOTce-3" value="黄色" style="ellipse;whiteSpace=wrap;html=1;fontSize=18;" parent="1" vertex="1">
          <mxGeometry x="650" y="1110" width="120" height="80" as="geometry" />
        </mxCell>
        <mxCell id="jGAaExHpM7MZqOoKOTce-5" style="rounded=0;orthogonalLoop=1;jettySize=auto;html=1;exitX=0.5;exitY=1;exitDx=0;exitDy=0;entryX=1;entryY=0;entryDx=0;entryDy=0;fontFamily=Helvetica;fontSize=18;fontColor=default;" parent="1" source="jGAaExHpM7MZqOoKOTce-4" edge="1">
          <mxGeometry relative="1" as="geometry">
            <mxPoint x="399.9964068711927" y="1450.8557287525382" as="targetPoint" />
          </mxGeometry>
        </mxCell>
        <mxCell id="jGAaExHpM7MZqOoKOTce-32" style="edgeStyle=none;rounded=0;orthogonalLoop=1;jettySize=auto;html=1;exitX=0.5;exitY=1;exitDx=0;exitDy=0;entryX=0;entryY=0;entryDx=0;entryDy=0;fontFamily=Helvetica;fontSize=18;fontColor=default;" parent="1" source="jGAaExHpM7MZqOoKOTce-4" edge="1">
          <mxGeometry relative="1" as="geometry">
            <mxPoint x="559.1435931288072" y="1450.8557287525382" as="targetPoint" />
          </mxGeometry>
        </mxCell>
        <mxCell id="jGAaExHpM7MZqOoKOTce-4" value="白色或黄色" style="ellipse;whiteSpace=wrap;html=1;fontSize=18;" parent="1" vertex="1">
          <mxGeometry x="421.56999999999994" y="1289.1399999999999" width="120" height="80" as="geometry" />
        </mxCell>
        <mxCell id="jGAaExHpM7MZqOoKOTce-34" style="edgeStyle=none;rounded=0;orthogonalLoop=1;jettySize=auto;html=1;entryX=1;entryY=0;entryDx=0;entryDy=0;fontFamily=Helvetica;fontSize=18;fontColor=default;exitX=0.5;exitY=1;exitDx=0;exitDy=0;" parent="1" source="jGAaExHpM7MZqOoKOTce-33" edge="1">
          <mxGeometry relative="1" as="geometry">
            <mxPoint x="259.99640687119273" y="1300.8557287525382" as="targetPoint" />
          </mxGeometry>
        </mxCell>
        <mxCell id="jGAaExHpM7MZqOoKOTce-35" style="edgeStyle=none;rounded=0;orthogonalLoop=1;jettySize=auto;html=1;exitX=0.5;exitY=1;exitDx=0;exitDy=0;entryX=0;entryY=0;entryDx=0;entryDy=0;fontFamily=Helvetica;fontSize=18;fontColor=default;" parent="1" source="jGAaExHpM7MZqOoKOTce-33" target="jGAaExHpM7MZqOoKOTce-4" edge="1">
          <mxGeometry relative="1" as="geometry" />
        </mxCell>
        <mxCell id="jGAaExHpM7MZqOoKOTce-33" value="公猫，且白色或黄色" style="ellipse;whiteSpace=wrap;html=1;fontSize=18;" parent="1" vertex="1">
          <mxGeometry x="262.57" y="1119.1399999999999" width="190" height="100" as="geometry" />
        </mxCell>
        <mxCell id="jGAaExHpM7MZqOoKOTce-36" value="算术表达式（一）：1 + 2 = 3" style="text;html=1;strokeColor=none;fillColor=none;align=center;verticalAlign=middle;whiteSpace=wrap;rounded=0;fontFamily=Helvetica;fontSize=18;fontColor=default;fontStyle=1" parent="1" vertex="1">
          <mxGeometry x="30" y="30" width="260" height="30" as="geometry" />
        </mxCell>
        <mxCell id="jGAaExHpM7MZqOoKOTce-43" value="" style="edgeStyle=none;rounded=0;orthogonalLoop=1;jettySize=auto;html=1;fontFamily=Helvetica;fontSize=18;fontColor=default;exitX=0.5;exitY=1;exitDx=0;exitDy=0;" parent="1" source="jGAaExHpM7MZqOoKOTce-39" target="jGAaExHpM7MZqOoKOTce-42" edge="1">
          <mxGeometry relative="1" as="geometry" />
        </mxCell>
        <mxCell id="jGAaExHpM7MZqOoKOTce-45" value="" style="edgeStyle=none;rounded=0;orthogonalLoop=1;jettySize=auto;html=1;fontFamily=Helvetica;fontSize=18;fontColor=default;exitX=0.5;exitY=1;exitDx=0;exitDy=0;" parent="1" source="jGAaExHpM7MZqOoKOTce-39" target="jGAaExHpM7MZqOoKOTce-44" edge="1">
          <mxGeometry relative="1" as="geometry" />
        </mxCell>
        <mxCell id="jGAaExHpM7MZqOoKOTce-39" value="+" style="ellipse;whiteSpace=wrap;html=1;strokeColor=default;fontFamily=Helvetica;fontSize=18;fontColor=default;fillColor=default;" parent="1" vertex="1">
          <mxGeometry x="130" y="90" width="120" height="80" as="geometry" />
        </mxCell>
        <mxCell id="jGAaExHpM7MZqOoKOTce-42" value="1" style="ellipse;whiteSpace=wrap;html=1;strokeColor=default;fontFamily=Helvetica;fontSize=18;fontColor=default;fillColor=default;" parent="1" vertex="1">
          <mxGeometry x="30" y="240" width="120" height="80" as="geometry" />
        </mxCell>
        <mxCell id="jGAaExHpM7MZqOoKOTce-44" value="2" style="ellipse;whiteSpace=wrap;html=1;strokeColor=default;fontFamily=Helvetica;fontSize=18;fontColor=default;fillColor=default;" parent="1" vertex="1">
          <mxGeometry x="234" y="240" width="120" height="80" as="geometry" />
        </mxCell>
        <mxCell id="tUkQdguP8nZ7kC9-mE0c-1" value="表达式（二）：1 + 1 = 2" style="text;html=1;strokeColor=none;fillColor=none;align=center;verticalAlign=middle;whiteSpace=wrap;rounded=0;fontFamily=Helvetica;fontSize=18;fontColor=default;fontStyle=1" vertex="1" parent="1">
          <mxGeometry x="30" y="350" width="200" height="30" as="geometry" />
        </mxCell>
        <mxCell id="tUkQdguP8nZ7kC9-mE0c-2" value="" style="edgeStyle=none;rounded=0;orthogonalLoop=1;jettySize=auto;html=1;fontFamily=Helvetica;fontSize=18;fontColor=default;exitX=0.5;exitY=1;exitDx=0;exitDy=0;" edge="1" source="tUkQdguP8nZ7kC9-mE0c-4" target="tUkQdguP8nZ7kC9-mE0c-5" parent="1">
          <mxGeometry relative="1" as="geometry" />
        </mxCell>
        <mxCell id="tUkQdguP8nZ7kC9-mE0c-3" value="" style="edgeStyle=none;rounded=0;orthogonalLoop=1;jettySize=auto;html=1;fontFamily=Helvetica;fontSize=18;fontColor=default;exitX=0.5;exitY=1;exitDx=0;exitDy=0;" edge="1" source="tUkQdguP8nZ7kC9-mE0c-4" target="tUkQdguP8nZ7kC9-mE0c-6" parent="1">
          <mxGeometry relative="1" as="geometry" />
        </mxCell>
        <mxCell id="tUkQdguP8nZ7kC9-mE0c-4" value="+" style="ellipse;whiteSpace=wrap;html=1;strokeColor=default;fontFamily=Helvetica;fontSize=18;fontColor=default;fillColor=default;" vertex="1" parent="1">
          <mxGeometry x="130" y="410" width="120" height="80" as="geometry" />
        </mxCell>
        <mxCell id="tUkQdguP8nZ7kC9-mE0c-5" value="1" style="ellipse;whiteSpace=wrap;html=1;strokeColor=default;fontFamily=Helvetica;fontSize=18;fontColor=default;fillColor=default;" vertex="1" parent="1">
          <mxGeometry x="30" y="560" width="120" height="80" as="geometry" />
        </mxCell>
        <mxCell id="tUkQdguP8nZ7kC9-mE0c-6" value="2" style="ellipse;whiteSpace=wrap;html=1;strokeColor=default;fontFamily=Helvetica;fontSize=18;fontColor=default;fillColor=default;" vertex="1" parent="1">
          <mxGeometry x="234" y="560" width="120" height="80" as="geometry" />
        </mxCell>
      </root>
    </mxGraphModel>
  </diagram>
</mxfile>
